# Blender 4.0.2
# www.blender.org
mtllib osmobile_door_portal.mtl
o DoorPortal-noimp
v -0.725000 0.000000 -0.100000
v -0.725000 2.100000 0.300000
v 0.775000 0.000000 -0.100000
v 0.775000 2.100000 0.300000
v -0.725000 0.700000 0.300000
v 0.775000 0.700000 0.300000
v -0.725000 0.000000 -0.100000
v -0.725000 2.100000 0.300000
v 0.775000 0.000000 -0.100000
v 0.775000 2.100000 0.300000
v -0.725000 0.700000 0.300000
v 0.775000 0.700000 0.300000
vn -0.0000 -0.0000 -1.0000
vn -0.0000 0.4961 -0.8682
vn -0.0000 -0.0000 1.0000
vn -0.0000 -0.4961 0.8682
vn -0.0000 1.0000 -0.0000
vn -0.0000 -1.0000 -0.0000
vt 0.500000 0.000000
vt 1.000000 0.000000
vt 1.000000 1.000000
vt 0.500000 1.000000
vt 0.000000 0.000000
vt 0.000000 1.000000
s 0
f 5/1/1 2/2/1 4/3/1 6/4/1
f 1/5/2 5/1/2 6/4/2 3/6/2
f 11/1/3 12/4/3 10/3/3 8/2/3
f 7/5/4 9/6/4 12/4/4 11/1/4
f 1/5/5 7/5/5 11/1/5 5/1/5
f 2/2/5 8/2/5 10/3/5 4/3/5
f 3/6/5 9/6/5 7/5/5 1/5/5
f 4/3/5 10/3/5 12/4/5 6/4/5
f 6/4/6 12/4/6 9/6/6 3/6/6
f 5/1/5 11/1/5 8/2/5 2/2/5
